# xmcd
# Copyright (C) 1995-1998 Ti Kan
#
# Track frame offsets:
#       150
#       16747
#       33924
#       55062
#       73435
#       88033
#       101521
#       120123
#       140081
#       155935
#       179144
#       192209
#       204850
#
# Disc length: 2899 seconds
#
# Revision: 0
# Processed by: cddbd v1.5.2PL0 Copyright (c) Steve Scherf et al.
# Submitted via: CD-Import v1.0
#
DISCID=b40b510d
DTITLE=Ferdinand Von Schirach - Ferdinand Von Schirach
DYEAR=13
DGENRE=
TTITLE0=1.der Bäcker
TTITLE1=2.der Bäcker
TTITLE2=3.der Bäcker
TTITLE3=1.seybold
TTITLE4=2.seybold
TTITLE5=3.seybold
TTITLE6=4.seybold
TTITLE7=1.carl Thorbergs Weihnachten
TTITLE8=2.carl Thorbergs Weihnachten
TTITLE9=3.carl Thorbergs Weihnachten
TTITLE10=4.carl Thorbergs Weihnachten
TTITLE11=5.carl Thorbergs Weihnachten
TTITLE12=6.carl Thorbergs Weihnachten
EXTD=
EXTT0=
EXTT1=
EXTT2=
EXTT3=
EXTT4=
EXTT5=
EXTT6=
EXTT7=
EXTT8=
EXTT9=
EXTT10=
EXTT11=
EXTT12=
PLAYORDER=
